<svg width="42" height="40" viewBox="0 0 42 40" fill="none" xmlns="http://www.w3.org/2000/svg">
<path opacity="0.5" d="M41.9257 0.268635L31.6653 36.6166C31.6131 36.7816 31.4044 36.8311 31.2827 36.7156L24.4134 30.1984L29.561 11.9831C29.6132 11.8181 29.4567 11.6696 29.2828 11.7191L10.0836 16.6029L3.24914 10.1187C3.12741 10.0032 3.17958 9.80523 3.35349 9.75573L41.6474 0.00464641C41.8213 -0.0283522 41.9778 0.120142 41.9257 0.268635Z" fill="#36479E"/>
<path opacity="0.5" d="M24.4131 30.1981L21.7697 39.6027C21.7176 39.7677 21.5089 39.8172 21.3871 39.7017L0.0663444 19.49C-0.0553893 19.3745 -0.00321798 19.1765 0.170687 19.127L10.0833 16.6026L24.4131 30.1981Z" fill="#36479E"/>
<path d="M29.5602 11.9828L24.4126 30.1981L10.0828 16.6026L29.2819 11.7188C29.4558 11.6693 29.6124 11.8178 29.5602 11.9828Z" fill="#36479E"/>
</svg>
